<?xml version="1.0" encoding="UTF-8" standalone="no"?>
<svg
   width="72"
   height="72"
   version="1.1"
   id="svg65"
   sodipodi:docname="action-overlays.svg"
   inkscape:version="1.1.1 (3bf5ae0d25, 2021-09-20)"
   xmlns:inkscape="http://www.inkscape.org/namespaces/inkscape"
   xmlns:sodipodi="http://sodipodi.sourceforge.net/DTD/sodipodi-0.dtd"
   xmlns="http://www.w3.org/2000/svg"
   xmlns:svg="http://www.w3.org/2000/svg">
  <defs
     id="defs69" />
  <sodipodi:namedview
     id="namedview67"
     pagecolor="#ffffff"
     bordercolor="#111111"
     borderopacity="1"
     inkscape:pageshadow="0"
     inkscape:pageopacity="0"
     inkscape:pagecheckerboard="1"
     showgrid="false"
     inkscape:zoom="6.9532139"
     inkscape:cx="4.8179159"
     inkscape:cy="52.349892"
     inkscape:window-width="1920"
     inkscape:window-height="1014"
     inkscape:window-x="0"
     inkscape:window-y="32"
     inkscape:window-maximized="1"
     inkscape:current-layer="svg65" />
  <g
     id="remove-normal"
     transform="matrix(1.375,0,0,1.375,0,-24.75)">
    <rect
       y="34"
       width="16"
       height="16"
       opacity=".001"
       id="rect2" />
    <path
       d="m13.818 42a5.8182 5.8182 0 0 1-5.8182 5.8182 5.8182 5.8182 0 0 1-5.8182-5.8182 5.8182 5.8182 0 0 1 5.8182-5.8182 5.8182 5.8182 0 0 1 5.8182 5.8182z"
       fill="#1a1a1a"
       stroke-width=".83117"
       id="path4" />
    <rect
       transform="rotate(90)"
       x="41.273"
       y="-10.909"
       width="1.4545"
       height="5.8182"
       fill="#ffffff"
       stroke-width=".72727"
       id="rect6" />
  </g>
  <g
     id="add-normal"
     transform="matrix(1.375,0,0,1.375,0,-24.75)">
    <rect
       y="18"
       width="16"
       height="16"
       opacity=".001"
       id="rect9" />
    <path
       d="m13.818 26a5.8182 5.8182 0 0 1-5.8182 5.8182 5.8182 5.8182 0 0 1-5.8182-5.8182 5.8182 5.8182 0 0 1 5.8182-5.8182 5.8182 5.8182 0 0 1 5.8182 5.8182z"
       fill="#1a1a1a"
       stroke-width=".83117"
       id="path11" />
    <path
       transform="matrix(.72727 0 0 .72727 0 18)"
       d="m10 7v3h-3v2h3v3h2v-3h3v-2h-3v-3z"
       fill="#ffffff"
       id="path13" />
  </g>
  <g
     id="open-normal"
     transform="matrix(1.375,0,0,1.375,0,-24.75)">
    <rect
       y="50"
       width="16"
       height="16"
       opacity=".001"
       id="rect16" />
    <path
       d="m13.818 58a5.8182 5.8182 0 0 1-5.8182 5.8182 5.8182 5.8182 0 0 1-5.8182-5.8182 5.8182 5.8182 0 0 1 5.8182-5.8182 5.8182 5.8182 0 0 1 5.8182 5.8182z"
       fill="#1a1a1a"
       stroke-width=".83117"
       id="path18" />
    <path
       d="m8 55.818 2.9091 3.6364h-5.8182l1.4545-1.8182z"
       fill="#ffffff"
       stroke-width=".66452"
       id="path20" />
  </g>
  <g
     id="remove-hover"
     transform="matrix(1.375,0,0,1.375,23,-24.75)">
    <rect
       y="34"
       width="16"
       height="16"
       opacity=".001"
       id="rect23" />
    <path
       d="m13.818 42a5.8182 5.8182 0 0 1-5.8182 5.8182 5.8182 5.8182 0 0 1-5.8182-5.8182 5.8182 5.8182 0 0 1 5.8182-5.8182 5.8182 5.8182 0 0 1 5.8182 5.8182z"
       fill="#333333"
       stroke-width=".83117"
       id="path25" />
    <rect
       transform="rotate(90)"
       x="41.273"
       y="-10.909"
       width="1.4545"
       height="5.8182"
       fill="#ffffff"
       stroke-width=".72727"
       id="rect27" />
  </g>
  <g
     id="add-hover"
     transform="matrix(1.375,0,0,1.375,23,-24.75)">
    <rect
       y="18"
       width="16"
       height="16"
       opacity=".001"
       id="rect30" />
    <path
       d="m13.818 26a5.8182 5.8182 0 0 1-5.8182 5.8182 5.8182 5.8182 0 0 1-5.8182-5.8182 5.8182 5.8182 0 0 1 5.8182-5.8182 5.8182 5.8182 0 0 1 5.8182 5.8182z"
       fill="#333333"
       stroke-width=".83117"
       id="path32" />
    <path
       transform="matrix(.72727 0 0 .72727 0 18)"
       d="m10 7v3h-3v2h3v3h2v-3h3v-2h-3v-3z"
       fill="#ffffff"
       id="path34" />
  </g>
  <g
     id="open-hover"
     transform="matrix(1.375,0,0,1.375,23,-24.75)">
    <rect
       y="50"
       width="16"
       height="16"
       opacity=".001"
       id="rect37" />
    <path
       d="m13.818 58a5.8182 5.8182 0 0 1-5.8182 5.8182 5.8182 5.8182 0 0 1-5.8182-5.8182 5.8182 5.8182 0 0 1 5.8182-5.8182 5.8182 5.8182 0 0 1 5.8182 5.8182z"
       fill="#333333"
       stroke-width=".83117"
       id="path39" />
    <path
       d="m8 55.818 2.9091 3.6364h-5.8182l1.4545-1.8182z"
       fill="#ffffff"
       stroke-width=".66452"
       id="path41" />
  </g>
  <g
     id="remove-pressed"
     transform="matrix(1.375,0,0,1.375,48,-24.75)">
    <rect
       y="34"
       width="16"
       height="16"
       opacity=".001"
       id="rect44" />
    <path
       d="m13.818 42a5.8182 5.8182 0 0 1-5.8182 5.8182 5.8182 5.8182 0 0 1-5.8182-5.8182 5.8182 5.8182 0 0 1 5.8182-5.8182 5.8182 5.8182 0 0 1 5.8182 5.8182z"
       fill="#4285f4"
       stroke-width=".83117"
       id="path46"
       style="fill:#ff9085;fill-opacity:1" />
    <rect
       transform="rotate(90)"
       x="41.273"
       y="-10.909"
       width="1.4545"
       height="5.8182"
       fill="#ffffff"
       stroke-width=".72727"
       id="rect48" />
  </g>
  <g
     id="add-pressed"
     transform="matrix(1.375,0,0,1.375,48,-24.75)">
    <rect
       y="18"
       width="16"
       height="16"
       opacity=".001"
       id="rect51" />
    <path
       d="m13.818 26a5.8182 5.8182 0 0 1-5.8182 5.8182 5.8182 5.8182 0 0 1-5.8182-5.8182 5.8182 5.8182 0 0 1 5.8182-5.8182 5.8182 5.8182 0 0 1 5.8182 5.8182z"
       fill="#4285f4"
       stroke-width=".83117"
       id="path53"
       style="fill:#ff9085;fill-opacity:1" />
    <path
       transform="matrix(.72727 0 0 .72727 0 18)"
       d="m10 7v3h-3v2h3v3h2v-3h3v-2h-3v-3z"
       fill="#ffffff"
       id="path55" />
  </g>
  <g
     id="open-pressed"
     transform="matrix(1.375,0,0,1.375,48,-24.75)">
    <rect
       y="50"
       width="16"
       height="16"
       opacity=".001"
       id="rect58" />
    <path
       d="m13.818 58a5.8182 5.8182 0 0 1-5.8182 5.8182 5.8182 5.8182 0 0 1-5.8182-5.8182 5.8182 5.8182 0 0 1 5.8182-5.8182 5.8182 5.8182 0 0 1 5.8182 5.8182z"
       fill="#4285f4"
       stroke-width=".83117"
       id="path60"
       style="fill:#ff9085;fill-opacity:1" />
    <path
       d="m8 55.818 2.9091 3.6364h-5.8182l1.4545-1.8182z"
       fill="#ffffff"
       stroke-width=".66452"
       id="path62" />
  </g>
</svg>
